<?xml version="1.0" encoding="UTF-8"?>
<svg width="180" height="53" viewBox="0 0 180 53" fill="none" xmlns="http://www.w3.org/2000/svg">
  <rect width="180" height="53" rx="6" fill="black"/>
  <g transform="translate(15, 10)">
    <path d="M27.795 14.045c-.14-1.4.513-2.8 1.633-3.733-1.633-2.333-4.2-2.8-5.133-2.8-2.1-.233-4.2 1.167-5.367 1.167-1.167 0-3.033-1.167-4.9-1.167-2.567 0-4.9 1.4-6.3 3.733-2.567 4.433-.7 10.967 1.867 14.467 1.167 1.867 2.8 3.733 4.667 3.733 1.867 0 2.567-.933 4.9-.933 2.333 0 2.8.933 4.9.933 2.1 0 3.267-1.633 4.667-3.733 1.4-2.1 1.867-4.2 1.867-4.433-.047 0-3.733-1.4-3.733-5.367 0-3.267 2.8-4.9 2.933-4.9zM24.295 4.378c1.4-1.633 2.333-3.733 2.1-5.833-2.1.047-4.433 1.4-5.833 3.033-1.167 1.4-2.333 3.5-2.1 5.6 2.333.233 4.667-1.167 5.833-2.8z" fill="white"/>
    <text x="45" y="8" fill="white" font-family="Arial" font-size="10">Download on the</text>
    <text x="45" y="28" fill="white" font-family="Arial" font-weight="bold" font-size="16">App Store</text>
  </g>
</svg> 