<?xml version="1.0" encoding="UTF-8"?>
<svg width="800" height="600" xmlns="http://www.w3.org/2000/svg">
    <style>
        .car { fill: #2563eb; }
        .window { fill: #ffffff; }
        .wheel { fill: #1e40af; }
    </style>
    <g transform="translate(100,200)">
        <!-- Car body -->
        <path class="car" d="M50,100 L150,100 C200,100 250,80 300,80 L450,80 C500,80 520,100 550,150 L600,150 C620,150 620,200 600,200 L580,200 C580,244 544,280 500,280 C456,280 420,244 420,200 L280,200 C280,244 244,280 200,280 C156,280 120,244 120,200 L50,200 C20,200 20,100 50,100 Z"/>
        <!-- Windows -->
        <path class="window" d="M280,80 L420,80 L400,120 L300,120 Z"/>
        <!-- Wheels -->
        <circle class="wheel" cx="200" cy="200" r="40"/>
        <circle class="wheel" cx="500" cy="200" r="40"/>
    </g>
</svg> 